<?xml version="1.0" standalone="no"?>
<!DOCTYPE svg PUBLIC "-//W3C//DTD SVG 20010904//EN"
 "http://www.w3.org/TR/2001/REC-SVG-20010904/DTD/svg10.dtd">
<svg version="1.0" xmlns="http://www.w3.org/2000/svg"
 width="964.000000pt" height="842.000000pt" viewBox="0 0 964.000000 842.000000"
 preserveAspectRatio="xMidYMid meet">

<g transform="translate(0.000000,842.000000) scale(0.100000,-0.100000)"
fill="#000000" stroke="none">
<path d="M6401 7859 c-84 -10 -117 -27 -128 -67 -5 -15 -8 -97 -8 -182 0 -179
11 -222 79 -324 l42 -63 -32 -84 c-88 -225 -109 -463 -85 -964 15 -310 -11
-460 -95 -554 -144 -160 -381 -121 -523 86 -12 18 -56 94 -97 170 -153 279
-263 415 -431 530 -95 66 -165 100 -313 153 -223 80 -275 121 -425 330 -153
213 -283 334 -452 419 -230 115 -527 120 -756 13 -205 -96 -333 -217 -526
-500 -55 -81 -120 -169 -144 -197 l-44 -50 -77 59 c-42 32 -136 108 -209 168
-72 60 -159 124 -192 140 -160 82 -342 27 -488 -147 -159 -189 -190 -382 -86
-538 18 -28 94 -97 197 -181 l168 -135 -130 -133 c-160 -162 -244 -279 -336
-463 -145 -293 -200 -564 -200 -990 l0 -163 -35 -43 c-87 -103 -118 -197 -118
-354 1 -110 19 -201 65 -328 43 -118 36 -115 106 -51 119 107 189 229 219 380
20 106 9 217 -34 321 -27 67 -28 71 -26 250 2 203 14 340 44 488 20 101 88
320 96 311 3 -2 -1 -40 -8 -83 -16 -99 -16 -422 0 -573 43 -416 136 -879 235
-1175 89 -266 248 -621 385 -860 446 -777 1146 -1404 1856 -1663 277 -101 535
-146 835 -146 387 0 715 77 1065 249 471 232 899 639 1167 1111 104 184 113
217 72 258 -20 20 -83 21 -111 1 -12 -8 -41 -50 -64 -93 -122 -222 -268 -421
-444 -601 -231 -237 -432 -386 -705 -520 -202 -99 -399 -162 -645 -207 -141
-26 -494 -26 -654 -1 -243 39 -459 106 -669 209 -468 230 -855 610 -1083 1065
-135 268 -239 662 -239 904 0 82 1 88 40 150 225 361 293 518 342 792 12 67
23 124 25 126 1 2 45 -24 98 -59 328 -212 669 -327 1037 -350 84 -5 197 -6
252 -2 97 8 98 7 107 -16 24 -62 102 -543 115 -706 l7 -89 66 7 c36 3 77 6 90
6 24 0 24 0 17 86 -16 210 -80 627 -112 727 -8 25 -17 31 211 -138 105 -78
230 -170 278 -205 72 -52 88 -67 83 -84 -2 -12 -25 -88 -49 -171 -25 -82 -47
-166 -51 -185 l-6 -35 86 -16 c47 -8 87 -12 89 -9 3 4 24 75 48 159 25 83 47
154 50 157 3 4 153 -97 334 -223 180 -127 342 -237 359 -246 50 -26 756 -198
1072 -262 76 -15 85 -15 108 -1 40 27 31 62 -51 201 -134 227 -539 848 -580
889 -22 23 -166 123 -320 224 -154 101 -281 188 -283 193 -2 5 16 9 40 9 74 0
248 29 363 60 591 157 1020 596 1175 1200 45 178 52 247 59 585 6 320 7 331
30 378 13 27 38 62 55 79 56 57 285 148 369 148 19 0 51 -16 91 -46 74 -57
127 -80 210 -95 163 -28 321 61 401 224 22 45 49 84 74 104 52 43 64 84 59
192 -3 75 -9 96 -39 156 -22 44 -38 91 -41 125 -20 191 -197 359 -467 444 -94
30 -271 61 -409 71 -89 7 -97 10 -165 54 -160 104 -247 140 -382 161 -134 21
-342 -6 -471 -60 -30 -13 -34 -12 -74 23 -54 46 -111 72 -185 86 -65 12 -68
12 -174 0z m192 -196 c81 -41 135 -108 157 -193 7 -25 21 -55 33 -67 26 -29
76 -30 108 -4 24 19 25 35 16 155 -2 28 1 31 58 48 83 26 216 38 305 28 88
-10 164 -37 243 -85 31 -19 82 -51 113 -70 63 -38 97 -46 298 -70 330 -39 539
-134 610 -277 17 -34 26 -68 26 -99 0 -36 9 -66 36 -118 23 -42 39 -89 42
-119 4 -46 2 -51 -24 -68 -23 -16 -47 -19 -139 -18 -157 1 -255 36 -391 139
-50 38 -87 44 -116 18 -26 -24 -23 -66 10 -100 113 -120 308 -203 477 -203 53
0 55 -1 45 -20 -16 -29 -87 -78 -130 -90 -54 -14 -126 10 -206 70 -78 60 -108
76 -154 85 -57 10 -183 -22 -370 -95 -198 -78 -276 -95 -400 -88 -69 4 -99 11
-151 36 -74 35 -145 101 -185 170 -38 67 -54 82 -83 82 -47 0 -71 -26 -71 -76
0 -132 171 -310 351 -365 53 -16 88 -20 173 -17 90 3 105 1 101 -12 -29 -95
-35 -159 -35 -387 0 -157 -5 -282 -15 -356 -43 -329 -169 -617 -373 -853 -193
-223 -498 -397 -817 -464 -107 -23 -374 -44 -463 -37 -62 5 -68 8 -285 152
-288 192 -547 377 -782 560 -264 206 -1054 838 -1455 1165 -184 150 -381 309
-437 353 l-103 81 25 30 c51 62 142 186 225 307 193 282 386 411 636 426 281
17 506 -111 723 -412 106 -148 212 -260 296 -315 38 -25 122 -62 212 -94 81
-29 168 -63 193 -76 177 -90 313 -234 438 -465 33 -60 80 -146 104 -190 123
-227 330 -343 560 -314 197 24 348 166 411 386 21 76 22 88 19 516 -3 457 3
565 39 710 28 111 48 150 74 142 66 -19 74 -18 105 13 52 52 39 94 -43 140
-63 35 -126 103 -158 170 -18 37 -24 69 -27 150 l-4 102 61 0 c38 0 74 -6 94
-17z m-4689 -873 c23 -11 78 -51 124 -90 l82 -71 -47 -36 c-108 -80 -203 -193
-269 -318 -25 -47 -48 -85 -51 -85 -14 0 -162 137 -185 172 -59 87 -25 215 91
340 59 64 134 108 185 108 16 0 48 -9 70 -20z m384 -297 c57 -42 63 -55 30
-70 -47 -22 -156 -123 -205 -189 -28 -37 -69 -105 -90 -150 -21 -46 -41 -83
-44 -84 -15 -1 -99 84 -99 100 0 53 84 194 169 283 61 65 160 147 176 147 6 0
34 -17 63 -37z m333 -273 c74 -58 350 -280 614 -494 1004 -815 1462 -1171
1845 -1436 91 -63 377 -254 636 -425 260 -171 487 -322 505 -336 l33 -26 -34
-17 c-71 -34 -97 -69 -120 -163 l-15 -64 -265 177 c-497 332 -1107 771 -1400
1005 -58 47 -256 206 -440 354 -322 259 -444 357 -1105 895 -165 134 -369 300
-453 368 l-153 125 23 24 c38 41 162 124 180 121 9 -2 76 -50 149 -108z m-204
-327 c173 -139 514 -416 897 -727 1151 -934 1693 -1344 2401 -1816 94 -62 192
-129 218 -148 l48 -35 -32 -33 c-19 -20 -41 -60 -54 -99 l-22 -65 -54 38 c-30
21 -196 137 -369 257 -670 464 -1028 742 -2230 1725 -333 272 -715 583 -848
690 -147 119 -244 204 -248 218 -7 25 13 87 46 140 l20 33 28 -20 c15 -10 104
-81 199 -158z m-45 -438 c243 -198 540 -439 658 -536 559 -461 814 -668 1028
-839 143 -113 228 -188 223 -193 -6 -6 -97 -7 -223 -4 -236 6 -327 21 -520 83
-242 78 -415 165 -619 311 l-76 54 -7 112 c-13 217 -43 355 -84 387 -44 35
-112 19 -133 -31 -9 -24 -8 -46 7 -122 15 -75 19 -136 19 -327 -1 -219 -3
-244 -29 -364 -48 -225 -114 -381 -248 -589 -39 -60 -84 -138 -100 -174 l-31
-65 6 -157 c9 -217 60 -456 151 -705 31 -86 15 -72 -72 62 -99 152 -200 335
-291 529 -189 404 -297 758 -376 1238 -54 333 -60 399 -60 685 1 237 3 276 23
369 34 154 78 284 134 394 52 101 154 250 168 245 5 -2 208 -165 452 -363z
m4201 -2319 l158 -236 -35 -38 c-20 -20 -48 -62 -63 -92 -16 -30 -29 -57 -30
-59 -3 -4 -368 84 -482 116 -48 14 -55 19 -72 59 -39 88 5 163 109 185 84 18
87 23 87 139 0 95 1 100 29 129 31 32 99 54 126 40 8 -4 86 -113 173 -243z"/>
<path d="M7285 7314 c-120 -31 -195 -78 -195 -123 0 -54 41 -73 103 -46 12 5
17 3 17 -8 0 -49 100 -105 165 -93 42 8 103 58 111 92 5 18 13 24 35 24 38 0
71 33 67 68 -2 22 -14 33 -62 56 -48 24 -73 30 -140 32 -44 2 -90 1 -101 -2z"/>
<path d="M8196 7167 c-31 -31 -33 -60 -8 -85 26 -26 245 -102 293 -102 34 0
39 3 39 24 0 32 -95 120 -162 151 -29 13 -72 27 -95 31 -36 5 -45 3 -67 -19z"/>
<path d="M4692 2074 c-20 -14 -22 -24 -22 -103 0 -97 7 -111 56 -111 53 0 64
20 64 115 0 75 -2 85 -22 99 -12 9 -29 16 -38 16 -9 0 -26 -7 -38 -16z"/>
<path d="M4107 1892 c-29 -32 -18 -70 46 -159 34 -48 65 -55 97 -23 27 27 25
62 -6 113 -55 88 -100 110 -137 69z"/>
<path d="M5310 1853 c-29 -20 -318 -251 -467 -374 -66 -55 -118 -89 -146 -97
-58 -17 -115 -66 -138 -116 -66 -145 60 -304 209 -266 63 16 93 40 127 102 15
29 119 190 230 358 260 395 250 377 235 395 -16 19 -20 19 -50 -2z"/>
<path d="M3701 1446 c-7 -8 -11 -32 -9 -53 3 -34 8 -41 53 -65 84 -46 101 -49
130 -27 29 24 34 69 9 94 -27 26 -111 65 -142 65 -16 0 -35 -6 -41 -14z"/>
</g>
</svg>
